<svg width="400" height="200" viewBox="0 0 400 200" fill="none" xmlns="http://www.w3.org/2000/svg">
<g clip-path="url(#clip0_13_4)">
<path opacity="0.1" d="M400 128.455C400.007 133.874 399.201 139.273 397.599 144.533C397.06 146.306 396.434 148.041 395.721 149.74C394.848 151.837 393.837 153.894 392.692 155.902C392.114 156.918 391.504 157.913 390.861 158.889C390.872 164.445 389.464 169.943 386.728 175.036C381.782 184.172 372.962 191.559 361.875 195.851C354.944 198.539 347.369 199.953 339.689 199.992H75.9335C64.1985 200.012 52.6662 197.506 42.5091 192.729L42.3528 192.657C40.9061 191.968 39.4956 191.24 38.1213 190.47C35.0292 188.734 32.1241 186.787 29.4374 184.651C25.801 181.762 22.5967 178.535 19.891 175.036C13.5362 166.833 10.1697 157.335 10.1815 147.642C3.74591 138.463 -0.00679016 127.467 -0.00679016 115.652C-0.00679016 100.744 5.95677 87.1452 15.7545 76.8507C17.7972 74.7 20.0347 72.6764 22.4483 70.7967C24.8297 68.9366 27.3894 67.2334 30.1031 65.7033C32.2742 64.4777 34.5433 63.371 36.8953 62.3905C37.8768 61.9847 38.8616 61.601 39.8635 61.2448C40.7431 60.9274 41.6329 60.632 42.5328 60.3532C43.6128 60.02 44.7063 59.7136 45.8135 59.4339C46.9206 59.1541 48.013 58.9093 49.0907 58.6995C50.6756 58.3848 52.2876 58.129 53.9268 57.9321C55.2852 57.7692 56.6436 57.656 58.0021 57.5704C59.082 57.5042 60.1722 57.4683 61.2691 57.4572H61.8635C63.0725 57.4572 64.2747 57.4959 65.4667 57.5621C65.5924 57.3579 65.7282 57.1508 65.8539 56.9493C66.3293 56.2122 66.8218 55.4779 67.3176 54.7601C67.3165 54.7537 67.3165 54.7472 67.3176 54.7408C67.4025 54.6138 67.4874 54.4896 67.5757 54.3681C67.9764 53.7801 68.3942 53.1976 68.8221 52.6206C69.0191 52.3445 69.2126 52.085 69.413 51.8255C69.4554 51.761 69.5019 51.6984 69.5522 51.6378C69.756 51.3617 69.9632 51.0857 70.1737 50.8096C71.222 49.4477 72.3121 48.1097 73.4442 46.7956L73.7328 46.4588C73.9094 46.2546 74.0725 46.0558 74.2694 45.8515C74.7381 45.3187 75.2203 44.7831 75.706 44.2586C76.0456 43.8832 76.3852 43.5105 76.752 43.1544C77.635 42.2342 78.5406 41.3139 79.4689 40.3937C80.3971 39.4735 81.3616 38.5653 82.3624 37.669C82.4982 37.5447 82.634 37.4233 82.7767 37.3018L84.2268 36.0154C84.2981 35.9546 84.3593 35.8994 84.4272 35.8442C84.6004 35.6924 84.7668 35.5405 84.9536 35.3942C85.7313 34.7234 86.5294 34.0663 87.3308 33.4121C91.4097 30.1096 95.7551 27.0321 100.338 24.1998C100.518 24.0839 100.701 23.9734 100.881 23.863C101.744 23.3357 102.62 22.814 103.496 22.3005C108.316 19.49 113.354 16.9357 118.578 14.6535C118.938 14.4851 119.305 14.3278 119.675 14.1732C124.359 12.1588 129.177 10.3561 134.105 8.77336C136.792 7.90928 139.539 7.09765 142.304 6.35504C144.144 5.86365 145.992 5.3971 147.863 4.95816C150.788 4.27352 153.734 3.65974 156.7 3.11681C165.438 1.52306 174.327 0.538533 183.271 0.173971C185.988 0.061705 188.735 0.00373231 191.513 5.1462e-05C204.918 -0.014374 218.27 1.35858 231.248 4.0858C231.382 4.25063 231.565 4.38501 231.781 4.47629C231.997 4.56756 232.237 4.61274 232.48 4.60756H233.621C234.117 4.71798 234.61 4.82841 235.106 4.94436C237.875 5.59219 240.604 6.29983 243.294 7.06729L243.973 7.26605C250.611 9.18496 257.071 11.4915 263.3 14.1677C268.915 16.5742 274.322 19.2897 279.482 22.295C280.277 22.7588 281.061 23.2262 281.833 23.6974C282.77 23.2097 283.723 22.7422 284.692 22.295C288.434 20.5625 292.409 19.1851 296.538 18.1899C305.17 16.1134 314.304 15.823 323.109 17.3451C334.401 19.2914 344.623 24.1225 352.879 30.9937C356.241 33.8051 359.233 36.8935 361.807 40.2088C361.994 40.4462 362.181 40.6864 362.361 40.9293C364.574 43.8636 366.476 46.9454 368.046 50.1415C368.104 50.2603 368.162 50.3707 368.213 50.4866C369.662 53.4795 370.832 56.5571 371.711 59.6934C371.751 59.8535 371.799 60.0108 371.84 60.1709C372.662 63.2061 373.22 66.2844 373.511 69.3832C373.511 69.4936 373.51 69.6068 373.538 69.7228C373.68 71.3258 373.753 72.9454 373.755 74.5815C373.755 76.0446 373.694 77.4967 373.582 78.9378C373.582 79.0951 373.555 79.258 373.538 79.4209C373.507 79.8378 373.463 80.2491 373.419 80.6687C376.013 82.3694 378.44 84.2311 380.68 86.2369C381.669 87.1148 382.627 88.0258 383.553 88.9699C386.373 91.8435 388.852 94.9281 390.956 98.1822C396.699 106.994 400 117.36 400 128.455Z" fill="#006FA7"/>
<path opacity="0.1" d="M361.624 194.829C361.624 196.715 353.633 198.482 339.689 200H75.9335C64.1985 200.02 52.6662 197.514 42.509 192.737L42.3528 192.665C46.3602 191.478 53.5939 190.371 63.4392 189.372L63.8807 189.327C68.2957 188.888 73.2302 188.472 78.6232 188.077C78.7591 188.077 78.8983 188.06 79.0342 188.046C83.3132 187.737 87.8652 187.447 92.6899 187.177C92.8427 187.177 92.9921 187.155 93.145 187.149C95.006 187.041 96.9056 186.938 98.8436 186.84L99.5908 186.801C113.702 186.089 129.741 185.52 147.136 185.145H147.157C149.593 185.09 152.055 185.041 154.543 184.999C157.31 184.945 160.111 184.898 162.945 184.858C165.108 184.819 167.299 184.792 169.496 184.764H169.547C179.46 184.643 189.703 184.582 200.177 184.582C226.075 184.582 250.554 184.966 272.245 185.656H272.306C275.641 185.761 278.915 185.877 282.108 185.995L284.825 186.1C288.427 186.24 291.936 186.39 295.352 186.55C335.528 188.408 361.624 191.425 361.624 194.829Z" fill="#006FA7"/>
<g opacity="0.2">
<path opacity="0.2" d="M231.03 183.315C231.019 183.612 230.977 183.909 230.905 184.201C228.541 183.895 226.164 183.619 223.773 183.373C223.773 183.295 223.773 183.215 223.773 183.135C223.795 182.307 224.088 181.499 224.622 180.794C225.321 179.894 226.384 179.331 227.556 179.361C228.728 179.392 229.743 180.007 230.371 180.938C230.847 181.669 231.074 182.489 231.03 183.315V183.315Z" fill="#3F3D56"/>
<path opacity="0.2" d="M231.225 178.597C231.308 176.462 229.749 174.69 227.744 174.638C225.738 174.587 224.044 176.276 223.961 178.411C223.878 180.546 225.437 182.318 227.443 182.37C229.449 182.421 231.142 180.732 231.225 178.597Z" fill="#3F3D56"/>
<path opacity="0.2" d="M231.411 173.871C231.494 171.736 229.935 169.963 227.929 169.912C225.923 169.86 224.23 171.549 224.147 173.684C224.064 175.819 225.622 177.592 227.628 177.643C229.634 177.695 231.328 176.006 231.411 173.871Z" fill="#3F3D56"/>
<path opacity="0.2" d="M231.592 169.145C231.675 167.01 230.117 165.237 228.111 165.186C226.105 165.134 224.411 166.823 224.328 168.958C224.245 171.093 225.804 172.865 227.81 172.917C229.816 172.969 231.509 171.28 231.592 169.145Z" fill="#3F3D56"/>
<path opacity="0.2" d="M231.774 164.418C231.857 162.283 230.299 160.511 228.293 160.459C226.287 160.408 224.593 162.097 224.51 164.232C224.427 166.367 225.986 168.139 227.992 168.191C229.998 168.242 231.691 166.553 231.774 164.418Z" fill="#3F3D56"/>
<path opacity="0.2" d="M215.782 131.624C215.303 131.098 214.872 130.545 214.491 129.968L224.088 128.938L213.758 128.737C212.836 126.959 212.369 125.047 212.388 123.118C212.406 121.189 212.908 119.284 213.863 117.518L227.488 123.715L215.007 115.754C216.266 114.098 217.932 112.672 219.899 111.563C221.867 110.454 224.095 109.688 226.444 109.31C228.792 108.933 231.212 108.953 233.55 109.37C235.889 109.787 238.097 110.591 240.036 111.733C241.975 112.875 243.603 114.329 244.82 116.005C246.036 117.681 246.814 119.544 247.106 121.475C247.397 123.407 247.195 125.367 246.513 127.232C245.831 129.098 244.683 130.829 243.141 132.317C243.885 133.136 244.517 134.018 245.026 134.948L232.429 139.862L245.786 136.596C246.627 138.853 246.763 141.244 246.181 143.553C245.598 145.863 244.317 148.017 242.451 149.823C244.391 151.961 245.55 154.501 245.798 157.15C246.045 159.799 245.37 162.452 243.851 164.804C242.331 167.156 240.028 169.113 237.204 170.452C234.38 171.79 231.15 172.455 227.884 172.371C224.617 172.288 221.445 171.458 218.73 169.978C216.016 168.498 213.869 166.427 212.535 164.001C211.2 161.576 210.732 158.894 211.185 156.263C211.637 153.631 212.991 151.157 215.092 149.121C212.775 146.565 211.583 143.451 211.706 140.277C211.829 137.104 213.261 134.057 215.771 131.624H215.782Z" fill="#006FA7"/>
<path opacity="0.1" d="M246.527 141.171C246.408 144.346 244.971 147.395 242.451 149.823C244.39 151.961 245.55 154.501 245.798 157.15C246.045 159.799 245.37 162.452 243.851 164.804C242.331 167.156 240.028 169.113 237.204 170.452C234.38 171.79 231.15 172.455 227.884 172.371C224.617 172.288 221.445 171.458 218.73 169.978C216.016 168.498 213.869 166.427 212.535 164.001C211.2 161.576 210.732 158.894 211.185 156.263C211.637 153.631 212.991 151.157 215.092 149.121C212.861 146.656 246.588 139.583 246.527 141.171Z" fill="black"/>
</g>
<g opacity="0.2">
<path opacity="0.2" d="M179.409 183.315C179.399 183.612 179.356 183.909 179.284 184.201C176.92 183.895 174.543 183.619 172.152 183.373C172.152 183.295 172.152 183.215 172.152 183.135C172.174 182.307 172.467 181.499 173.001 180.794C173.701 179.894 174.764 179.331 175.935 179.361C177.107 179.392 178.122 180.007 178.751 180.938C179.226 181.669 179.453 182.489 179.409 183.315V183.315Z" fill="#3F3D56"/>
<path opacity="0.2" d="M179.601 178.598C179.684 176.463 178.125 174.691 176.119 174.639C174.113 174.588 172.42 176.277 172.337 178.412C172.254 180.547 173.813 182.319 175.818 182.371C177.824 182.422 179.518 180.733 179.601 178.598Z" fill="#3F3D56"/>
<path opacity="0.2" d="M179.786 173.872C179.869 171.737 178.31 169.965 176.304 169.913C174.298 169.862 172.605 171.551 172.522 173.685C172.439 175.82 173.998 177.593 176.004 177.645C178.01 177.696 179.703 176.007 179.786 173.872Z" fill="#3F3D56"/>
<path opacity="0.2" d="M179.968 169.146C180.051 167.011 178.492 165.238 176.486 165.187C174.48 165.135 172.787 166.824 172.704 168.959C172.621 171.094 174.18 172.867 176.186 172.918C178.192 172.97 179.885 171.281 179.968 169.146Z" fill="#3F3D56"/>
<path opacity="0.2" d="M180.15 164.419C180.233 162.284 178.674 160.512 176.668 160.46C174.662 160.409 172.969 162.098 172.886 164.233C172.803 166.368 174.362 168.14 176.368 168.192C178.374 168.243 180.067 166.554 180.15 164.419Z" fill="#3F3D56"/>
<path opacity="0.2" d="M164.161 131.624C163.683 131.098 163.251 130.545 162.87 129.968L172.468 128.938L162.137 128.737C161.215 126.959 160.749 125.047 160.767 123.118C160.785 121.189 161.287 119.284 162.242 117.518L175.867 123.715L163.387 115.754C164.646 114.098 166.311 112.672 168.279 111.563C170.247 110.454 172.474 109.688 174.823 109.31C177.172 108.933 179.591 108.953 181.93 109.37C184.268 109.787 186.476 110.591 188.415 111.733C190.354 112.875 191.982 114.329 193.199 116.005C194.415 117.681 195.194 119.544 195.485 121.475C195.776 123.407 195.575 125.367 194.892 127.232C194.21 129.098 193.062 130.829 191.52 132.317C192.264 133.136 192.896 134.018 193.405 134.948L180.809 139.862L194.166 136.596C195.007 138.853 195.142 141.244 194.56 143.553C193.978 145.863 192.696 148.017 190.831 149.823C192.77 151.961 193.929 154.501 194.177 157.15C194.424 159.799 193.75 162.452 192.23 164.804C190.71 167.156 188.407 169.113 185.583 170.452C182.76 171.79 179.53 172.455 176.263 172.371C172.996 172.288 169.824 171.458 167.11 169.978C164.395 168.498 162.248 166.427 160.914 164.001C159.579 161.576 159.112 158.894 159.564 156.263C160.016 153.631 161.37 151.157 163.472 149.121C161.155 146.565 159.962 143.451 160.085 140.277C160.208 137.104 161.64 134.057 164.151 131.624H164.161Z" fill="#006FA7"/>
<path opacity="0.1" d="M194.906 141.171C194.787 144.346 193.351 147.395 190.83 149.823C192.77 151.961 193.929 154.501 194.177 157.15C194.424 159.799 193.75 162.452 192.23 164.804C190.71 167.156 188.407 169.113 185.583 170.452C182.76 171.79 179.53 172.455 176.263 172.371C172.996 172.288 169.824 171.458 167.11 169.978C164.395 168.498 162.248 166.427 160.914 164.001C159.579 161.576 159.112 158.894 159.564 156.263C160.016 153.631 161.37 151.157 163.472 149.121C161.24 146.656 194.967 139.583 194.906 141.171Z" fill="black"/>
</g>
<g opacity="0.2">
<path opacity="0.2" d="M320.416 186.335C320.39 186.899 320.307 187.46 320.168 188.013C315.617 187.422 311.033 186.894 306.417 186.429C306.417 186.28 306.417 186.128 306.417 185.973C306.46 184.379 307.025 182.823 308.054 181.465C309.412 179.734 311.45 178.649 313.702 178.704C315.953 178.76 317.913 179.949 319.135 181.741C320.057 183.152 320.499 184.738 320.416 186.335V186.335Z" fill="#3F3D56"/>
<path opacity="0.2" d="M320.785 177.246C320.945 173.134 317.943 169.721 314.079 169.622C310.215 169.522 306.953 172.775 306.793 176.886C306.634 180.998 309.636 184.411 313.5 184.511C317.364 184.61 320.625 181.357 320.785 177.246Z" fill="#3F3D56"/>
<path opacity="0.2" d="M321.138 168.147C321.298 164.035 318.295 160.622 314.432 160.522C310.568 160.423 307.306 163.676 307.146 167.787C306.987 171.899 309.989 175.312 313.853 175.411C317.717 175.511 320.978 172.258 321.138 168.147Z" fill="#3F3D56"/>
<path opacity="0.2" d="M321.495 159.047C321.654 154.936 318.652 151.523 314.788 151.423C310.924 151.324 307.663 154.577 307.503 158.688C307.343 162.8 310.346 166.213 314.209 166.312C318.073 166.412 321.335 163.159 321.495 159.047Z" fill="#3F3D56"/>
<path opacity="0.2" d="M321.449 149.534C321.601 145.421 318.591 142.01 314.725 141.915C310.859 141.821 307.602 145.079 307.451 149.193C307.299 153.306 310.309 156.718 314.175 156.812C318.041 156.906 321.298 153.648 321.449 149.534Z" fill="#3F3D56"/>
<path opacity="0.2" d="M291.056 86.8248C290.14 85.8114 289.31 84.7479 288.574 83.6418L307.049 81.6597L287.164 81.2704C285.388 77.8486 284.49 74.1681 284.524 70.4543C284.557 66.7404 285.523 63.0712 287.361 59.6712L313.596 71.5999L289.572 56.2728C292.001 53.0937 295.21 50.3553 298.998 48.2283C302.786 46.1013 307.073 44.6314 311.59 43.91C316.108 43.1887 320.76 43.2314 325.256 44.0355C329.752 44.8397 333.997 46.388 337.725 48.584C341.453 50.78 344.584 53.5766 346.925 56.7996C349.265 60.0226 350.763 63.6028 351.327 67.3171C351.89 71.0314 351.506 74.8003 350.199 78.3887C348.892 81.9772 346.69 85.3084 343.73 88.1748C345.161 89.7523 346.378 91.4507 347.36 93.2405L323.109 102.707L348.821 96.4125C350.441 100.751 350.705 105.349 349.588 109.791C348.472 114.233 346.01 118.378 342.426 121.852C346.158 125.969 348.39 130.857 348.866 135.957C349.342 141.057 348.043 146.163 345.117 150.691C342.191 155.219 337.757 158.987 332.321 161.563C326.886 164.139 320.668 165.42 314.379 165.258C308.09 165.097 301.984 163.501 296.759 160.651C291.534 157.802 287.4 153.815 284.831 149.146C282.262 144.477 281.361 139.315 282.232 134.25C283.102 129.184 285.708 124.42 289.752 120.502C285.295 115.581 283 109.586 283.236 103.479C283.473 97.3709 286.227 91.5049 291.056 86.8221V86.8248Z" fill="#006FA7"/>
<path opacity="0.1" d="M350.251 105.2C350.028 111.309 347.276 117.178 342.44 121.857C346.172 125.975 348.404 130.863 348.88 135.963C349.356 141.063 348.057 146.169 345.131 150.697C342.205 155.225 337.771 158.992 332.335 161.568C326.9 164.144 320.682 165.425 314.393 165.264C308.104 165.103 301.998 163.506 296.773 160.657C291.548 157.808 287.414 153.821 284.845 149.152C282.276 144.483 281.375 139.321 282.245 134.255C283.115 129.19 285.722 124.426 289.766 120.507C285.439 115.756 350.369 102.144 350.251 105.2Z" fill="black"/>
</g>
<path d="M53.5973 186.821L57.1598 186.812H62.1827L68.5334 102.95L131.426 17.6378L128.692 15.2526V9.21228L60.6748 100.973L53.5973 186.821Z" fill="#F1C0C0"/>
<path opacity="0.1" d="M57.5402 186.812H62.1827L68.5334 102.95L131.426 17.6377L128.692 15.2525L63.8196 101.672L57.5402 186.812Z" fill="black"/>
<path d="M43.1 187.519L206.062 197.656L206.201 197.665L363.913 189.78L364.032 189.775V184.361L190.253 181.769L45.2701 181.656H44.2105L44.095 182.263L43.1 187.519Z" fill="#F1C0C0"/>
<path opacity="0.1" d="M43.1 187.519L206.062 197.656L206.201 197.665L363.913 189.78L364.032 189.675V184.474H363.893L206.062 188.759L45.2701 181.656H45.2463L44.961 181.807L44.095 182.263L43.1 187.519Z" fill="black"/>
<path opacity="0.1" d="M43.1 187.519L206.062 197.656V188.759L44.961 181.807L44.095 182.263L43.1 187.519Z" fill="black"/>
<path d="M128.672 15.1394L200.516 77.8224L198.295 188.082L204.398 188.681L204.5 188.693H210.603L211.333 82.5569L345.863 119.086L348.131 184.126L353.042 184.574L354.706 184.725L350.855 114.575L210.222 74.4407L133.11 9.27576H128.672V15.1394Z" fill="#F1C0C0"/>
<path opacity="0.1" d="M210.779 80.5278L211.333 82.5569L345.863 119.086L348.131 184.126L353.042 184.574L349.191 117.733L210.779 80.5278Z" fill="black"/>
<path opacity="0.1" d="M128.672 15.1394L200.516 77.8224L198.295 188.082L204.398 188.681L206.062 74.2143L128.672 9.27576V15.1394Z" fill="black"/>
<path d="M211.041 124.778L260.383 132.676L260.4 132.679L346.82 146.518L350.777 145.229L350.763 145.003L350.505 140.516L211.092 117.617L211.041 124.778Z" fill="#F1C0C0"/>
<path opacity="0.1" d="M260.4 132.679L346.82 146.518L350.777 145.229L350.763 145.003L260.4 132.679Z" fill="black"/>
<path d="M263.704 96.777L265.039 156.501L265.728 187.141L271.804 186.975L275.628 186.87L274.439 97.6411L271.804 96.9288L271.227 96.777H263.704Z" fill="#F1C0C0"/>
<path opacity="0.1" d="M263.758 96.7632V96.777L265.039 156.501L265.728 187.141L271.804 186.975V96.7632H263.758Z" fill="black"/>
<path d="M168.535 112.029C168.892 112.187 169.232 112.367 169.554 112.568C169.934 112.839 170.276 113.143 170.573 113.476C172.03 115.008 173.375 116.789 173.232 118.721C173.235 119.002 173.17 119.281 173.04 119.542C172.91 119.802 172.718 120.04 172.475 120.24C171.873 120.656 171.011 120.676 170.223 120.676C169.367 120.676 168.467 120.676 167.727 120.317C166.986 119.958 166.368 119.26 165.492 119.276C165.369 119.293 165.242 119.293 165.119 119.276C164.816 119.196 164.755 118.873 164.558 118.669C164.219 118.302 163.502 118.393 162.969 118.553C162.436 118.713 161.845 118.953 161.318 118.768C161.013 118.637 160.763 118.434 160.602 118.186C159.342 116.529 159.074 114.539 158.836 112.615C158.69 111.444 157.576 107.452 160.649 108.361C162.008 108.758 163.278 109.553 164.514 110.136L168.535 112.029Z" fill="#3F3D56"/>
<path d="M165.499 112.424C165.773 112.585 166.106 112.666 166.444 112.655C166.782 112.644 167.106 112.541 167.363 112.364C167.869 111.992 168.191 111.484 168.27 110.934C168.61 110.848 168.783 111.21 169 111.43C169.381 111.806 170.155 111.8 170.501 112.201C170.743 112.477 170.688 112.86 170.858 113.172C171.079 113.575 171.626 113.785 171.999 114.111C172.352 114.467 172.607 114.88 172.746 115.323L173.303 116.681C173.57 117.246 173.741 117.838 173.813 118.44C173.848 118.741 173.809 119.044 173.698 119.333C173.587 119.622 173.407 119.89 173.167 120.121C172.42 120.775 171.194 120.844 170.111 120.825C169.749 120.831 169.388 120.797 169.038 120.723C168.077 120.48 167.462 119.693 167.207 118.901C166.953 118.108 166.98 117.277 166.83 116.466C166.669 115.669 166.384 114.891 165.981 114.152C165.682 113.578 164.861 112.722 164.874 112.112C165.119 112.112 165.295 112.294 165.499 112.424Z" fill="#3F3D56"/>
<path d="M166.718 109.628C166.559 109.236 166.467 108.828 166.443 108.416C166.443 107.588 166.908 106.809 167.377 106.069L163.495 106.497C163.027 106.55 162.504 106.627 162.239 106.944C162.138 107.102 162.086 107.276 162.086 107.454C162.086 107.631 162.138 107.806 162.239 107.963C162.433 108.278 162.588 108.608 162.701 108.949C162.709 109.246 162.751 109.543 162.826 109.835C162.947 110.049 163.116 110.243 163.325 110.406C164.436 111.406 165.268 112.584 166.097 113.752C166.073 113.719 168.437 112.231 168.342 111.745C168.287 111.469 167.605 111.138 167.387 110.873C167.087 110.488 166.861 110.068 166.718 109.628V109.628Z" fill="#BE6F72"/>
<path d="M200 98.8419V101.561L142.718 110.644L139.746 112.107H129.493V110.575L185.774 99.521L200 98.8419Z" fill="#F1C0C0"/>
<path opacity="0.1" d="M200 101.561L142.718 110.644L139.746 112.107H129.493L186.191 102.243L200 101.561Z" fill="black"/>
<path d="M154.01 176.035C153.372 175.407 152.491 174.972 151.51 174.803C150.53 174.634 149.508 174.739 148.61 175.102C148.418 175.175 148.249 175.283 148.114 175.417C147.775 175.803 147.992 176.336 148.023 176.813C148.101 177.978 146.96 178.925 145.934 179.74C145.384 180.176 144.823 180.642 144.576 181.236C144.328 181.829 144.511 182.583 145.177 182.892C145.467 183.011 145.783 183.082 146.107 183.102C147.193 183.274 148.306 183.299 149.401 183.177C150.485 183.008 151.548 182.509 152.016 181.697C152.107 181.477 152.257 181.276 152.455 181.109C153.052 180.725 153.969 181.175 154.648 180.902C155.209 180.676 155.233 180.319 155.239 179.85C155.26 178.553 155.022 177.084 154.01 176.035Z" fill="#006FA7"/>
<path d="M162.161 175.985C162.578 176.88 162.636 177.854 162.69 178.809C162.721 179.361 162.741 179.952 162.375 180.419C162.008 180.885 161.291 181.131 160.605 181.247C159.189 181.484 157.549 181.261 156.635 180.347C155.936 179.649 155.79 178.691 155.919 177.785C156.027 177.043 156.258 176.173 155.603 175.646C155.433 175.505 155.212 175.405 155.056 175.254C154.716 174.917 154.771 174.409 154.954 173.995C155.193 173.599 155.372 173.181 155.487 172.75C155.514 172.545 160.086 172.893 160.507 173.062C161.081 173.291 160.992 173.675 161.166 174.138C161.407 174.784 161.869 175.367 162.161 175.985Z" fill="#006FA7"/>
<path d="M162.999 136.326C163.896 136.798 164.242 137.726 164.382 138.587C164.765 140.947 164.093 143.332 164.042 145.715C163.995 149.052 165.183 152.451 164.168 155.683C163.56 157.616 164.076 159.824 163.505 161.776C163.336 162.356 163.023 162.903 162.86 163.482C162.521 164.738 162.877 166.052 163.356 167.281C163.509 167.612 163.606 167.958 163.645 168.311C163.622 168.853 163.452 169.384 163.149 169.868L161.111 173.785C160.884 174.224 159.987 174.296 159.413 174.354C158.333 174.459 157.128 174.533 156.268 173.989C155.409 173.445 155.202 172.534 155.07 171.684C154.816 170.052 154.702 168.407 154.73 166.762C154.767 166.333 154.72 165.901 154.591 165.484C154.404 165.012 153.993 164.603 153.881 164.103C153.738 163.457 154.142 162.823 154.292 162.171C154.394 161.576 154.383 160.972 154.258 160.379C154.125 159.496 153.973 158.613 153.799 157.735C153.555 156.506 153.905 155.294 154.139 154.063C154.36 152.906 154.078 151.727 153.799 150.579C153.823 151.511 153.68 152.441 153.375 153.34C153.195 153.779 152.937 154.198 152.781 154.645C152.084 156.652 153.568 158.759 153.358 160.838C153.259 161.809 152.791 162.77 152.923 163.728C153.015 164.429 153.416 165.072 153.691 165.74C153.966 166.409 154.108 167.173 153.691 167.797C152.587 169.492 153.412 171.797 154.401 173.537C154.601 173.845 154.776 174.164 154.924 174.492C155.216 175.276 154.971 176.118 155.049 176.935C154.765 176.973 154.473 176.957 154.197 176.89C153.921 176.822 153.668 176.705 153.456 176.546C153.307 176.419 153.185 176.27 153.039 176.137C152.631 175.821 152.148 175.576 151.619 175.417C151.309 175.275 150.955 175.209 150.6 175.226C150.227 175.311 149.891 175.48 149.632 175.715C149.297 175.955 148.94 176.175 148.566 176.374C148.407 176.474 148.22 176.541 148.023 176.57C147.923 176.583 147.821 176.57 147.732 176.533C147.642 176.495 147.569 176.436 147.523 176.363C147.502 176.317 147.49 176.269 147.486 176.22C147.36 175.386 147.293 174.548 147.286 173.708C147.286 172.264 145.16 171.27 144.891 169.843C144.677 168.692 145.075 167.518 144.942 166.359C144.878 165.763 144.674 165.177 144.688 164.581C144.688 164.195 144.796 163.816 144.834 163.433C144.865 163.007 144.857 162.579 144.81 162.154L144.705 160.821C144.603 159.504 144.491 158.16 143.852 156.956C143.095 155.551 142.647 154.048 142.528 152.517C142.46 151.551 142.504 150.585 142.368 149.616C142.246 148.74 141.974 147.871 142.052 146.993C142.117 146.314 142.392 145.657 142.456 144.978C142.589 143.672 141.978 142.402 141.499 141.151C141.02 139.901 140.667 138.515 141.295 137.309C141.385 137.111 141.534 136.934 141.73 136.795C141.971 136.666 142.245 136.583 142.531 136.552C148.358 135.557 154.33 135.248 160.266 135.633C161.233 135.678 162.172 135.916 162.999 136.326Z" fill="#3F3D56"/>
<path d="M143.72 107.005C146.724 107.005 149.16 105.025 149.16 102.583C149.16 100.14 146.724 98.16 143.72 98.16C140.715 98.16 138.279 100.14 138.279 102.583C138.279 105.025 140.715 107.005 143.72 107.005Z" fill="#BE6F72"/>
<path d="M142.667 108.107C142.745 108.359 142.745 108.624 142.667 108.877C142.581 109.053 142.461 109.218 142.31 109.363C141.784 109.915 141.201 110.43 140.568 110.903C140.891 111.488 141.471 111.954 142.195 112.209C142.914 112.458 143.668 112.633 144.44 112.731C144.825 112.813 145.226 112.836 145.622 112.797C145.986 112.722 146.331 112.595 146.64 112.421L149.663 110.95C150.119 110.749 150.541 110.502 150.919 110.213C151.474 109.75 151.788 109.131 151.796 108.485C151.81 108.369 151.771 108.253 151.687 108.159C151.571 108.077 151.426 108.028 151.273 108.018C150.21 107.828 149.371 107.127 148.895 106.332C148.466 105.516 148.187 104.654 148.07 103.772L144.847 105.153C144.368 105.36 143.893 105.567 143.397 105.746C143.081 105.862 142.443 105.959 142.219 106.193C141.791 106.627 142.555 107.585 142.667 108.107Z" fill="#BE6F72"/>
<path d="M140.589 110.1C140.13 110.406 139.771 110.799 139.546 111.245C139.335 111.798 139.546 112.38 139.736 112.927C140.627 115.256 141.308 117.636 141.774 120.046C142.059 121.703 142.164 123.384 142.304 125.06C142.589 128.477 143.003 133.927 143.557 137.322C145.594 137.397 147.581 136.914 149.602 136.737C153.378 136.411 157.267 137.157 160.965 136.461C160.069 133.582 159.172 128.665 158.275 125.789C157.879 124.655 157.604 123.496 157.454 122.324C157.376 121.482 157.423 120.637 157.437 119.79C157.467 118.133 157.355 116.477 157.243 114.82C157.114 112.888 156.985 110.956 156.421 109.065C156.382 108.824 156.243 108.601 156.027 108.432C155.688 108.231 155.246 108.303 154.842 108.347C153.605 108.475 152.352 108.233 151.317 107.668C150.869 107.419 150.267 107.116 149.85 107.392C149.671 107.558 149.554 107.762 149.51 107.98C149.325 108.37 149.04 108.724 148.673 109.018C148.307 109.312 147.867 109.538 147.384 109.683C146.416 109.968 145.403 110.137 144.375 110.185C144.061 110.24 143.733 110.21 143.441 110.1C142.959 109.86 142.925 108.996 142.317 108.938C141.784 108.888 140.949 109.821 140.589 110.1Z" fill="#3F3D56"/>
<path d="M148.624 116.841C147.371 115.867 146.82 114.453 145.907 113.252C145.285 112.445 144.49 111.734 143.56 111.154C143.093 110.903 142.664 110.608 142.283 110.274C141.961 109.951 141.716 109.52 141.227 109.396C141.025 109.36 140.815 109.365 140.616 109.41C140.416 109.454 140.233 109.538 140.083 109.653C139.783 109.884 139.5 110.13 139.233 110.387C137.794 111.599 135.263 111.767 134.122 113.17C133.815 113.467 133.605 113.823 133.514 114.205C133.186 116.246 133.835 118.312 135.328 119.975C135.617 120.36 136.061 120.653 136.585 120.803C136.514 121.318 136.597 121.839 136.829 122.321C137.458 124.068 138.231 125.779 139.142 127.442C138.924 128.093 138.772 128.756 138.687 129.427C138.449 131.114 138.67 132.825 138.446 134.515C138.262 135.895 137.766 137.24 137.749 138.623C137.749 138.844 137.773 139.106 138.008 139.219C138.132 139.271 138.272 139.295 138.412 139.288L142.589 139.39C145.014 139.448 147.462 139.506 149.85 139.142C150.168 139.103 150.476 139.024 150.763 138.907C151.572 138.54 151.84 137.712 151.969 136.975C152.137 136.019 152.204 135.052 152.169 134.087C152.675 135.387 153.276 136.732 154.805 137.295C155.613 137.593 156.537 137.571 157.423 137.552C159.333 137.482 161.237 137.323 163.125 137.074C163.241 137.086 163.359 137.075 163.47 137.043C163.58 137.011 163.68 136.959 163.761 136.89C163.842 136.821 163.902 136.737 163.936 136.646C163.97 136.555 163.977 136.458 163.957 136.365L163.977 134.857C164.018 131.796 163.084 128.869 162.721 125.822C162.605 124.861 162.616 123.889 162.327 122.948C162.208 122.553 162.035 122.167 161.93 121.769C161.839 121.38 161.782 120.986 161.76 120.59L161.495 117.554C161.369 116.148 161.189 114.793 161.057 113.39C160.984 112.025 160.741 110.669 160.33 109.343C160.035 108.515 159.42 107.577 158.357 107.474C157.79 107.422 157.24 107.624 156.7 107.764C155.372 108.104 153.948 108.099 152.624 107.75C152.215 107.619 151.789 107.527 151.354 107.474C151.135 107.45 150.912 107.474 150.708 107.543C150.504 107.612 150.326 107.723 150.193 107.866C150.061 108.082 149.999 108.322 150.013 108.562C149.853 111.32 149.558 114.161 148.624 116.841Z" fill="#006FA7"/>
<path d="M143.159 116.924C141.594 115.582 139.987 114.216 137.97 113.363C137.175 113.026 136.272 112.772 135.393 112.899C134.513 113.026 133.694 113.647 133.735 114.373C133.762 114.823 134.099 115.221 134.204 115.662C134.326 116.159 134.15 116.689 134.34 117.17C134.494 117.486 134.725 117.774 135.019 118.017L137.423 120.333C138.442 121.3 139.461 122.28 140.772 122.948C142.083 123.616 143.781 123.928 145.221 123.453C146.245 123.066 147.097 122.43 147.659 121.634C148.257 120.861 148.678 120.016 149.238 119.218C150.111 117.943 151.261 116.809 152.635 115.87C151.928 115.72 151.042 115.511 150.597 115.041C150.47 114.892 150.362 114.733 150.274 114.566L149.724 113.6C149.537 113.592 149.35 113.616 149.175 113.67C148.999 113.723 148.839 113.806 148.705 113.912C148.469 114.134 148.216 114.343 147.948 114.539C147.469 114.831 146.82 114.912 146.386 115.246C146.218 115.389 146.065 115.544 145.931 115.709C145.602 116.061 145.184 116.351 144.707 116.56C144.229 116.77 143.701 116.894 143.159 116.924V116.924Z" fill="#3F3D56"/>
<path d="M152.76 111.152C153.939 109.404 153.884 107.309 154.221 105.335C154.257 104.812 154.483 104.31 154.869 103.891C155.548 103.267 156.747 103.259 157.773 103.339C158.075 103.367 158.452 103.483 158.435 103.728C158.411 103.816 158.358 103.897 158.282 103.963C157.288 105.006 156.704 106.268 156.605 107.585C157.138 107.886 157.963 107.267 158.476 107.585C158.815 107.817 158.659 108.275 158.455 108.606C157.982 109.374 157.494 110.136 156.992 110.892C156.591 111.559 156.067 112.172 155.44 112.711C155.008 113.048 154.502 113.313 154.064 113.644C153.045 114.42 152.431 115.516 151.378 116.273C151.289 116.351 151.169 116.401 151.038 116.413C150.904 116.406 150.778 116.36 150.682 116.284C150.156 115.936 149.72 115.507 149.398 115.022C148.997 114.42 149.058 114.244 149.69 113.818C150.872 113.059 152.023 112.245 152.76 111.152Z" fill="#BE6F72"/>
<path d="M141.19 115.737C141.393 115.839 141.645 115.955 141.869 115.869C141.96 115.824 142.038 115.763 142.096 115.69C142.485 115.269 142.809 114.811 143.061 114.326C143.104 114.258 143.129 114.182 143.132 114.105C143.132 113.929 142.939 113.799 142.759 113.697C141.794 113.197 140.757 112.797 139.672 112.504C138.775 112.228 137.838 111.988 136.887 112.057C136.53 112.077 136.181 112.155 135.862 112.287C135.542 112.418 135.259 112.601 135.029 112.825C134.35 113.534 135.488 113.749 136.201 114.006C137.851 114.616 139.638 114.97 141.19 115.737Z" fill="#006FA7"/>
<path opacity="0.1" d="M140.12 120.43C140.108 120.493 140.115 120.557 140.14 120.618C140.165 120.678 140.207 120.733 140.263 120.778C140.361 120.386 140.232 119.972 140.334 119.577C140.483 118.984 141.193 118.536 141.254 117.94C139.953 117.733 140.13 119.79 140.12 120.43Z" fill="black"/>
<path opacity="0.2" d="M200 98.8419V101.561L186.191 102.243L185.774 99.521L200 98.8419Z" fill="black"/>
<path d="M138.823 103.24C139.685 102.668 139.186 101.47 139.77 100.703C140.11 100.283 140.684 100.062 141.247 99.8744C141.928 99.6156 142.657 99.4514 143.404 99.3885C143.778 99.3593 144.156 99.399 144.508 99.5046C144.861 99.6102 145.18 99.7791 145.442 99.9986C145.662 100.203 145.812 100.451 146.019 100.664C146.275 100.912 146.61 101.099 146.987 101.205C147.363 101.311 147.768 101.332 148.158 101.266C148.61 101.183 149.079 100.904 149.048 100.529C148.997 100.3 148.854 100.092 148.641 99.9379L147.669 99.0628C146.566 98.0689 145.34 97.0144 143.72 96.7659C142.592 96.592 141.438 96.8377 140.351 97.1331C139.913 97.2518 139.42 97.4285 139.298 97.7901C139.217 98.0386 139.339 98.3091 139.267 98.5603C139.128 99.06 138.34 99.2284 137.974 99.648C137.607 100.068 137.719 100.565 137.614 101.028C137.508 101.492 137.203 101.945 137.165 102.425C137.142 102.715 137.321 103.253 137.722 103.358C138.123 103.463 138.575 102.895 138.823 103.24Z" fill="#3F3D56"/>
<path d="M148.719 100.131C148.433 98.9165 147.815 97.7695 146.912 96.7742C146.109 95.8442 144.992 95.1232 143.696 94.6982C143.048 94.4924 142.351 94.4085 141.658 94.453C140.964 94.4975 140.292 94.6691 139.692 94.9549C138.801 95.4719 138.108 96.1829 137.692 97.0061C136.812 98.5465 136.486 100.429 137.508 101.909C137.916 101.506 138.615 101.688 139.234 101.542C140.008 101.362 140.663 100.943 141.4 100.68C143.625 99.8826 146.342 100.529 148.719 100.131Z" fill="#FED253"/>
<path opacity="0.1" d="M138.028 100.045C137.95 99.5486 137.899 98.9716 138.334 98.6183C138.355 98.5966 138.383 98.5794 138.414 98.5679C138.445 98.5564 138.479 98.5509 138.514 98.552C138.544 98.56 138.572 98.573 138.596 98.59C138.62 98.6071 138.639 98.628 138.653 98.6514C138.904 98.9733 139.117 99.3134 139.291 99.6673C139.038 99.6199 138.773 99.6353 138.531 99.7116C138.289 99.7879 138.08 99.9215 137.933 100.095" fill="black"/>
<path opacity="0.1" d="M145.965 98.6431L145.842 97.6576C145.823 97.5764 145.831 97.4923 145.866 97.4146C145.917 97.3496 145.996 97.3024 146.088 97.282C146.179 97.2616 146.277 97.2695 146.362 97.3042C146.529 97.3795 146.667 97.4914 146.759 97.6272C147.042 97.98 147.277 98.3567 147.459 98.7508C146.912 98.6651 146.349 98.6708 145.805 98.7674" fill="black"/>
<path opacity="0.1" d="M149.004 138.642V140.895L146.664 141.022H134.357V138.642H149.004Z" fill="black"/>
<path d="M149.004 138.642V141.022H134.357L95.4441 101.398V99.5266H103.602L149.004 138.642Z" fill="#F1C0C0"/>
<path opacity="0.1" d="M149.004 138.642V141.022H134.357L95.4441 101.398V99.5266H103.602L149.004 138.642Z" fill="black"/>
<path opacity="0.1" d="M149.004 138.642V141.022H134.357L95.4441 101.398V99.5266L134.567 138.642H149.004Z" fill="black"/>
<path d="M100.545 178.357C100.571 178.469 100.568 178.584 100.536 178.695C100.504 178.806 100.445 178.91 100.362 179.001C100.278 179.093 100.172 179.169 100.051 179.226C99.9292 179.283 99.7946 179.319 99.6553 179.331C98.7112 179.591 97.7093 179.847 97.0403 180.435C96.3713 181.023 96.2388 182.114 97.0403 182.591C97.45 182.792 97.9203 182.896 98.3987 182.892C99.9372 182.978 101.54 182.961 102.936 182.431C103.934 182.056 104.875 181.415 105.972 181.473C106.539 181.501 107.144 181.716 107.65 181.506C108.156 181.297 108.298 180.711 108.302 180.223C108.315 179.203 108.125 178.188 107.741 177.216C107.69 177.084 105.531 176.982 105.272 176.94L102.654 176.664C102.158 176.612 101.088 176.308 100.698 176.645C100.307 176.982 100.545 177.956 100.545 178.357Z" fill="#006FA7"/>
<path d="M116.171 171.466C116.281 171.963 116.461 172.449 116.707 172.913C117.071 173.664 117.536 174.461 118.426 174.826C119.234 175.154 120.225 175.036 121.047 174.724C121.39 174.608 121.691 174.423 121.92 174.185C122.185 173.81 122.304 173.377 122.26 172.946C122.26 171.877 122.182 170.773 121.581 169.823C121.064 168.995 120.164 168.283 120.151 167.366L117.057 167.852C116.891 167.865 116.734 167.916 116.602 167.999C116.504 168.083 116.436 168.187 116.405 168.3C116.075 169.333 115.995 170.408 116.171 171.466V171.466Z" fill="#006FA7"/>
<path d="M79.2243 145.24C79.0953 146.129 79.1496 147.081 79.7202 147.849C80.2907 148.616 81.4929 149.124 82.5322 148.818C82.5854 148.807 82.6354 148.787 82.6791 148.76C82.7229 148.733 82.7595 148.699 82.7869 148.66C82.8145 148.567 82.7988 148.469 82.7427 148.384C82.2839 147.389 82.3217 146.287 82.848 145.315C82.9159 145.188 83.062 145.038 83.2216 145.088C83.2883 145.116 83.3421 145.16 83.3744 145.215C83.5388 145.446 83.6211 145.71 83.6121 145.977C83.5642 146.219 83.555 146.465 83.5849 146.709C83.6495 146.946 83.9619 147.17 84.2336 147.067C84.3121 147.028 84.3801 146.976 84.4332 146.915C84.4863 146.854 84.5236 146.785 84.5427 146.711C85.3 144.931 84.957 142.985 84.6106 141.121C84.6135 141.078 84.6048 141.036 84.5851 140.996C84.5654 140.956 84.5352 140.92 84.4967 140.891C84.4581 140.862 84.4122 140.84 84.362 140.827C84.3119 140.813 84.2587 140.809 84.2064 140.815C82.6035 140.685 81.7273 140.373 80.8103 141.585C80.0224 142.606 79.2243 144.011 79.2243 145.24Z" fill="#006FA7"/>
<path d="M97.964 140.71C97.4886 142.316 97.0097 143.942 96.9792 145.593C96.9875 146.622 97.0828 147.648 97.2644 148.666L97.621 151.057C97.7433 151.863 97.8622 152.666 98.0354 153.464C98.1459 153.875 98.2061 154.294 98.2154 154.714C98.182 155.129 98.1013 155.54 97.9742 155.943C97.7607 156.788 97.6413 157.648 97.6176 158.51C97.5803 159.891 97.7908 161.271 97.9233 162.651C98.1877 165.402 98.1479 168.166 97.8044 170.911C97.6673 171.652 97.8652 172.408 98.3614 173.04C98.5628 173.239 98.7285 173.46 98.8538 173.697C99.1085 174.329 98.5142 174.961 98.3614 175.61C98.2636 176.116 98.4169 176.632 98.7875 177.046C99.1581 177.461 99.7157 177.738 100.338 177.818C103.055 178.081 105.846 177.962 108.295 178.972C108.553 178.359 107.989 177.664 108.247 177.04C108.41 176.653 108.859 176.402 109.164 176.076C109.575 175.58 109.78 174.99 109.749 174.392C109.761 173.612 109.59 172.837 109.246 172.109C108.957 171.502 108.543 170.903 108.567 170.251C108.567 169.931 108.706 169.594 108.546 169.299C108.437 169.129 108.288 168.978 108.108 168.854C107.093 167.951 106.47 166.802 106.332 165.583C106.2 164.374 106.248 163.156 106.475 161.956C106.641 160.813 106.865 159.606 107.758 158.715C107.344 156.011 107.588 153.267 108.475 150.64C108.563 150.397 108.703 150.115 109.008 150.057C109.13 150.047 109.252 150.061 109.366 150.097C109.479 150.134 109.58 150.192 109.66 150.267C110.193 150.673 110.448 151.261 110.679 151.824C110.934 152.434 111.192 153.086 110.998 153.71C110.917 153.986 110.754 154.229 110.659 154.494C110.452 155.026 110.488 155.601 110.761 156.114C110.893 156.301 110.977 156.509 111.005 156.724C110.974 156.909 110.905 157.088 110.801 157.254C110.675 157.581 110.635 157.926 110.684 158.266C110.732 158.606 110.869 158.934 111.083 159.228C111.516 159.814 112.05 160.347 112.669 160.81C112.373 161.87 112.45 162.975 112.89 164.001C112.922 164.047 112.942 164.098 112.95 164.151C112.957 164.203 112.952 164.257 112.934 164.308C112.873 164.413 112.717 164.451 112.594 164.526C112.255 164.752 112.465 165.18 112.693 165.475C113.317 166.286 114.005 167.063 114.754 167.8C115.434 168.46 115.372 169.732 116.385 169.97C116.81 170.044 117.25 170.044 117.675 169.97C118.674 169.846 119.787 169.611 120.276 168.893C120.477 168.598 120.558 168.239 120.871 168.018C121.183 167.797 121.587 167.758 121.761 167.493C121.934 167.228 121.74 166.881 121.798 166.574C121.856 166.268 122.185 166.022 122.29 165.699C122.542 164.954 121.472 164.341 121.326 163.579C121.115 162.475 122.827 161.646 122.756 160.542C122.606 158.143 122.511 155.733 122.358 153.334C122.166 151.185 122.139 149.029 122.277 146.877C122.396 145.538 122.616 144.136 122.012 142.891C121.142 141.135 118.745 140.149 116.425 139.962C114.106 139.774 111.793 140.221 109.494 140.514C105.678 140.992 101.801 141.058 97.964 140.71V140.71Z" fill="#3F3D56"/>
<path d="M104.858 114.324C107.863 114.324 110.299 112.344 110.299 109.901C110.299 107.459 107.863 105.478 104.858 105.478C101.853 105.478 99.4176 107.459 99.4176 109.901C99.4176 112.344 101.853 114.324 104.858 114.324Z" fill="#FBBEBE"/>
<path d="M102.644 115.149C102.459 115.499 102.148 115.795 101.752 115.998C101.357 116.202 100.894 116.303 100.426 116.289C100.229 116.952 100.701 117.62 101.241 118.142C102.363 119.202 103.812 120.001 105.439 120.454C107.066 120.908 108.813 121.001 110.499 120.723C111.155 120.627 111.778 120.416 112.323 120.104C113.058 119.606 113.551 118.911 113.715 118.144C113.871 117.383 113.916 116.609 113.848 115.839C113.867 115.687 113.813 115.535 113.698 115.414C113.562 115.329 113.394 115.284 113.223 115.287C112.075 115.204 110.876 115.168 109.867 114.71C108.859 114.252 108.142 113.217 108.628 112.366C108.55 112.499 106.566 112.562 106.305 112.59C105.486 112.684 104.668 112.789 103.853 112.91C103.461 112.928 103.074 112.987 102.702 113.087C102.209 113.294 102.393 113.192 102.508 113.567C102.681 114.141 102.936 114.553 102.644 115.149Z" fill="#FBBEBE"/>
<path d="M106.784 117.838C106.051 117.845 105.32 117.779 104.607 117.642C103.887 117.505 103.252 117.161 102.82 116.673C102.569 116.364 102.406 115.974 102.005 115.801C101.35 115.524 100.603 115.991 100.08 116.419C99.6036 116.841 99.0518 117.202 98.4429 117.49C97.7161 117.802 96.8671 117.912 96.1811 118.28C95.6452 118.609 95.1852 119.013 94.8227 119.472L90.0104 124.8C88.078 126.942 86.3969 129.242 84.6751 131.503C83.1842 133.46 82.4031 135.713 81.279 137.825C81.1899 137.954 81.1531 138.103 81.1737 138.25C81.2145 138.394 81.4284 138.51 81.5778 138.427C81.0718 138.835 81.5167 139.531 81.3978 140.105C81.2627 140.507 80.9809 140.866 80.5896 141.135C81.3371 141.056 82.0959 141.085 82.831 141.22C83.5907 141.395 84.3076 141.676 84.9502 142.049C85.3611 141.996 85.3237 141.403 85.6294 141.182C85.8128 141.052 86.0845 141.069 86.3256 141.03C87.2324 140.886 87.5923 140 88.2885 139.501C88.8693 139.084 89.6911 138.948 90.3058 138.556C91.3043 137.919 91.5182 136.784 92.0412 135.843C92.4861 135.045 93.1857 134.349 93.5763 133.532C93.831 133.002 93.9533 132.428 94.3166 131.939C94.8974 131.15 95.9909 130.73 97.0335 130.352C97.6924 130.112 98.392 129.863 99.1018 129.902C99.0644 131.186 98.864 132.45 99.207 133.703C99.3259 134.145 99.4923 134.576 99.6349 135.015C100.284 136.991 100.436 139.051 100.467 141.088C102.027 140.798 103.621 140.642 105.222 140.624C106.482 140.594 107.738 140.726 108.998 140.707C110.492 140.685 111.97 140.45 113.464 140.367C114.958 140.285 116.52 140.367 117.841 140.92C117.734 139.17 117.794 137.416 118.021 135.674L118.381 132.93C118.463 132.133 118.614 131.341 118.833 130.562C119.03 129.932 119.315 129.325 119.533 128.698C120.297 126.49 120.158 124.132 120.012 121.833C119.937 120.651 119.377 119.489 118.718 118.437C118.479 118.046 118.207 117.67 117.903 117.311C117.106 116.419 116.045 115.706 114.819 115.237C113.592 114.769 112.239 114.561 110.886 114.633C110.713 114.637 110.543 114.667 110.384 114.721C110.097 114.87 109.873 115.087 109.742 115.342C109.039 116.369 108.02 117.229 106.784 117.838Z" fill="#3F3D56"/>
<path d="M100.073 111.367C100.226 111.091 100.637 110.989 100.888 110.768C101.37 110.348 101.153 109.677 101.228 109.111C101.35 108.283 102.196 107.59 103.163 107.295C104.151 107.037 105.201 106.983 106.22 107.138C106.711 107.167 107.184 107.295 107.599 107.51C107.775 107.615 107.938 107.75 108.105 107.847C108.408 107.996 108.771 108.043 109.116 107.977C109.461 107.912 109.761 107.739 109.952 107.497C108.75 106.32 107.419 105.078 105.592 104.717C104.965 104.613 104.326 104.563 103.686 104.57C102.841 104.556 101.968 104.545 101.187 104.808C100.124 105.164 99.3768 105.984 98.9931 106.867C98.6574 107.763 98.478 108.692 98.4599 109.628C98.3902 110.252 98.3902 110.88 98.4599 111.505C98.5912 112.358 98.9809 113.171 99.5942 113.871C99.6771 113.98 99.7944 114.068 99.9338 114.128C101.482 114.68 99.9474 111.596 100.073 111.367Z" fill="#3F3D56"/>
<path d="M109.776 106.815C109.589 105.514 108.448 104.441 107.235 103.576C106.258 102.827 105.094 102.258 103.822 101.906C102.542 101.6 101.068 101.666 99.9711 102.287C99.0881 102.787 98.5278 103.582 98.0965 104.383C97.5299 105.327 97.2493 106.368 97.278 107.419C97.3629 108.463 97.9878 109.52 99.1017 110.047C99.5025 109.567 100.199 109.319 100.868 109.123C103.784 108.223 106.757 107.453 109.776 106.815V106.815Z" fill="#FED253"/>
<path opacity="0.1" d="M99.4753 106.274C99.584 106.274 99.6553 106.365 99.7097 106.439C99.9862 106.789 100.224 107.159 100.419 107.543C100.022 107.612 99.3395 107.69 99.1425 107.405C99.0372 107.262 99.1629 106.26 99.4753 106.274Z" fill="black"/>
<path opacity="0.1" d="M107.215 105.65C107.134 105.713 107.038 105.583 107.038 105.49V104.418C107.036 104.389 107.044 104.359 107.062 104.333C107.076 104.32 107.093 104.309 107.113 104.301C107.132 104.294 107.153 104.29 107.174 104.289C107.449 104.264 107.677 104.454 107.854 104.636C108.122 104.932 108.355 105.247 108.55 105.578L107.113 105.542" fill="black"/>
<path d="M125.143 123.387C125.456 123.146 125.789 122.923 126.141 122.721C127.082 122.211 128.22 122.009 129.276 121.683C130.332 121.358 131.405 120.83 131.816 119.975C132.022 119.439 132.089 118.875 132.013 118.318C132.023 118.085 131.972 117.853 131.864 117.636C131.735 117.445 131.551 117.282 131.327 117.161C129.894 116.3 127.972 116.231 126.192 116.32C122.269 116.517 118.423 117.298 114.846 118.622C114.657 118.673 114.491 118.769 114.371 118.898C114.301 119.018 114.269 119.15 114.279 119.282C114.216 120.096 114.346 120.912 114.663 121.686C115.131 122.669 116.096 123.461 116.5 124.463C116.683 124.913 116.744 125.391 116.904 125.844C117.035 126.311 117.375 126.723 117.858 126.998C119.2 127.649 120.467 126.774 121.397 126.095L125.143 123.387Z" fill="#3F3D56"/>
<path d="M107.575 127.21L105.853 124.157C105.601 123.734 105.383 123.298 105.201 122.851C105.004 122.318 104.909 121.766 104.726 121.231C104.121 119.447 102.596 117.962 101.853 116.215C101.806 116.057 101.71 115.911 101.574 115.792C101.466 115.73 101.341 115.688 101.211 115.668C101.08 115.649 100.945 115.654 100.817 115.682C99.7776 115.828 98.9659 116.471 98.015 116.836C97.5735 117.001 97.098 117.112 96.6565 117.302C96.4359 117.387 96.2403 117.51 96.0832 117.662C95.9262 117.814 95.8113 117.992 95.7464 118.183C95.6411 118.605 95.8992 119.011 96.1166 119.422C97.0403 121.117 97.2509 123.011 97.2916 124.866C97.3222 126.114 97.2441 127.453 96.3373 128.455C94.5951 130.388 95.709 133.226 96.3611 135.564C96.4392 135.84 96.5309 136.138 96.5852 136.431C96.6427 136.797 96.6688 137.166 96.6633 137.535C96.6633 138.775 96.5784 140.053 95.94 141.176C96.5703 141.449 97.265 141.609 97.9776 141.646C99.9496 141.85 101.93 141.993 103.917 142.076C104.54 142.124 105.168 142.098 105.782 141.999C106.511 141.839 107.153 141.486 107.607 140.996C108.062 140.506 108.303 139.907 108.292 139.294C108.4 140.058 108.601 140.889 109.283 141.419C109.966 141.949 110.961 142.029 111.888 142.071C114.505 142.184 117.128 142.124 119.733 141.891C119.899 141.885 120.063 141.854 120.215 141.8C120.718 141.596 120.745 141.033 120.704 140.58C120.63 139.732 120.552 138.885 120.426 138.043C120.319 137.506 120.265 136.963 120.263 136.42C120.315 135.86 120.428 135.306 120.602 134.763C121.058 133.041 121.418 131.282 121.265 129.518C121.204 129.088 121.183 128.656 121.2 128.223C121.288 127.249 121.92 126.321 121.801 125.352C121.462 122.503 121.187 119.58 120.208 116.83C120.032 116.339 119.808 115.812 119.281 115.53C118.602 115.16 117.648 115.353 116.87 115.119C116.505 114.981 116.158 114.813 115.834 114.619C115.131 114.261 114.324 114.059 113.494 114.034C112.87 114.014 112.173 114.128 111.796 114.536C111.622 114.766 111.506 115.023 111.457 115.29C110.964 116.974 110.387 118.638 109.81 120.303L109.256 121.899L107.772 126.183C107.626 126.639 107.724 126.78 107.575 127.21Z" fill="#006FA7"/>
<path d="M116.259 110.495L149.109 138.556V140.936H134.462L109.776 114.746" fill="#F1C0C0"/>
<path opacity="0.1" d="M116.259 110.495L149.109 138.556V140.936H134.462L109.776 114.746" fill="black"/>
<path opacity="0.1" d="M110.299 114.376L110.404 114.406L134.673 138.556H149.109V140.936H134.462L109.776 114.746L110.299 114.376Z" fill="black"/>
<path d="M114.079 114.967C112.89 115.389 111.569 115.93 111.212 116.946C111.142 117.124 111.127 117.314 111.168 117.498C111.255 117.715 111.421 117.905 111.643 118.043C111.866 118.182 112.135 118.262 112.414 118.274C112.974 118.285 113.53 118.202 114.048 118.031L121.061 116.148C121.251 116.099 121.469 116.024 121.516 115.872C121.528 115.777 121.505 115.681 121.448 115.596C121.231 115.166 121.017 114.285 120.562 113.984C120.188 113.741 119.448 113.827 118.996 113.832C117.257 113.843 115.624 114.415 114.079 114.967Z" fill="#006FA7"/>
<path d="M120.331 116.372C121.512 116.369 122.687 116.517 123.812 116.811C124.942 117.109 125.942 117.665 126.695 118.412C126.914 118.621 127.07 118.869 127.15 119.135C127.218 119.411 128.325 119.577 128.081 119.765C128.824 119.668 128.648 119.952 129.402 119.947C130.156 119.941 130.971 119.784 131.422 119.295C131.736 118.894 131.876 118.419 131.82 117.946C131.83 117.618 131.753 117.292 131.596 116.99C131.256 116.411 130.475 116.099 129.755 115.831L123.69 113.575C123.338 113.423 122.96 113.314 122.569 113.252C122.24 113.227 121.908 113.234 121.581 113.272L118.833 113.529C119.434 113.845 119.923 114.282 120.252 114.799C120.582 115.315 120.74 115.893 120.711 116.474" fill="#3F3D56"/>
</g>
<defs>
<clipPath id="clip0_13_4">
<rect width="400" height="200" fill="white"/>
</clipPath>
</defs>
</svg>
