<svg width="193" height="230" viewBox="0 0 193 230" fill="none" xmlns="http://www.w3.org/2000/svg">
<path d="M89.422 193.582C131.142 193.582 164.963 159.703 164.963 117.911C164.963 76.1194 131.142 42.2403 89.422 42.2403C47.7019 42.2403 13.8811 76.1194 13.8811 117.911C13.8811 159.703 47.7019 193.582 89.422 193.582Z" fill="white"/>
<path d="M89.422 194.338C47.3529 194.338 13.1271 160.053 13.1271 117.911C13.1271 75.7697 47.3529 41.4849 89.422 41.4849C131.491 41.4849 165.717 75.7697 165.717 117.911C165.717 160.053 131.491 194.338 89.422 194.338ZM89.422 42.9955C48.1845 42.9955 14.6352 76.6027 14.6352 117.911C14.6352 159.22 48.1845 192.827 89.422 192.827C130.66 192.827 164.209 159.22 164.209 117.911C164.209 76.6027 130.66 42.9955 89.422 42.9955Z" fill="#006FA7"/>
<path d="M79.1167 157.295C77.8122 157.295 76.5256 156.99 75.3589 156.406C74.1922 155.821 73.1775 154.973 72.395 153.927L51.7863 126.401C51.1243 125.517 50.6426 124.51 50.3688 123.44C50.0949 122.369 50.0343 121.254 50.1904 120.16C50.3465 119.066 50.7162 118.013 51.2785 117.062C51.8407 116.111 52.5844 115.28 53.4672 114.617C54.35 113.954 55.3546 113.471 56.4235 113.197C57.4925 112.923 58.6049 112.862 59.6972 113.018C60.7896 113.175 61.8405 113.545 62.79 114.108C63.7395 114.671 64.5689 115.416 65.231 116.301L78.7139 134.308L113.343 82.275C114.58 80.419 116.502 79.131 118.687 78.694C120.871 78.257 123.14 78.7069 124.993 79.9448C126.847 81.1826 128.134 83.1071 128.571 85.2952C129.009 87.4833 128.561 89.7559 127.327 91.6134L86.1091 153.546C85.3635 154.666 84.3607 155.591 83.1847 156.243C82.0088 156.894 80.694 157.254 79.3505 157.292C79.2726 157.293 79.1946 157.295 79.1167 157.295Z" fill="#006FA7"/>
<path d="M167.251 46.9682C167.461 45.5214 165.949 44.1033 163.873 43.8008C161.797 43.4982 159.943 44.4257 159.733 45.8724C159.523 47.3191 161.036 48.7372 163.112 49.0398C165.188 49.3424 167.041 48.4149 167.251 46.9682Z" fill="#E6E6E6"/>
<path d="M191.969 44.5522C192.179 43.1054 190.667 41.6874 188.591 41.3848C186.515 41.0822 184.661 42.0097 184.451 43.4564C184.241 44.9031 185.754 46.3212 187.83 46.6238C189.906 46.9264 191.759 45.9989 191.969 44.5522Z" fill="#3F3D56"/>
<path d="M160.482 26.9225C160.693 25.4758 159.18 24.0577 157.104 23.7551C155.028 23.4525 153.174 24.38 152.964 25.8267C152.754 27.2735 154.267 28.6916 156.343 28.9942C158.419 29.2967 160.272 28.3692 160.482 26.9225Z" fill="#FF6584"/>
<path d="M149.742 18.7114C149.752 17.3833 149.013 16.3009 148.09 16.2939C147.168 16.2869 146.412 17.358 146.402 18.6861C146.392 20.0143 147.132 21.0966 148.054 21.1036C148.976 21.1106 149.732 20.0396 149.742 18.7114Z" fill="#E6E6E6"/>
<path d="M146.1 3.41752C146.11 2.08937 145.37 1.00702 144.448 1.00004C143.525 0.993049 142.77 2.06407 142.76 3.39222C142.75 4.72037 143.489 5.80272 144.411 5.80971C145.334 5.81669 146.09 4.74567 146.1 3.41752Z" fill="#3F3D56"/>
<path d="M174.424 30.3337C174.434 29.0056 173.695 27.9232 172.772 27.9162C171.85 27.9093 171.094 28.9803 171.084 30.3084C171.074 31.6366 171.814 32.7189 172.736 32.7259C173.658 32.7329 174.414 31.6619 174.424 30.3337Z" fill="#E6E6E6"/>
<path d="M162.479 36.3079C162.489 34.9798 161.75 33.8974 160.827 33.8905C159.905 33.8835 159.149 34.9545 159.139 36.2826C159.129 37.6108 159.869 38.6931 160.791 38.7001C161.713 38.7071 162.469 37.6361 162.479 36.3079Z" fill="#FF6584"/>
<path d="M179.107 47.3499C179.117 46.0217 178.377 44.9394 177.455 44.9324C176.533 44.9254 175.777 45.9964 175.767 47.3246C175.757 48.6527 176.496 49.735 177.419 49.742C178.341 49.749 179.097 48.678 179.107 47.3499Z" fill="#3F3D56"/>
<path d="M25.4918 226.235C25.702 224.788 24.1893 223.37 22.1132 223.068C20.0371 222.765 18.1837 223.693 17.9736 225.139C17.7635 226.586 19.2761 228.004 21.3522 228.307C23.4283 228.609 25.2817 227.682 25.4918 226.235Z" fill="#E6E6E6"/>
<path d="M50.21 223.819C50.4201 222.372 48.9075 220.954 46.8314 220.652C44.7553 220.349 42.902 221.277 42.6918 222.723C42.4817 224.17 43.9943 225.588 46.0704 225.891C48.1465 226.193 49.9999 225.266 50.21 223.819Z" fill="#3F3D56"/>
<path d="M18.7233 206.189C18.9334 204.743 17.4207 203.325 15.3446 203.022C13.2686 202.719 11.4152 203.647 11.2051 205.094C10.9949 206.54 12.5076 207.958 14.5837 208.261C16.6598 208.564 18.5131 207.636 18.7233 206.189Z" fill="#FF6584"/>
<path d="M7.98259 197.978C7.99262 196.65 7.25304 195.568 6.3307 195.561C5.40836 195.554 4.65251 196.625 4.64248 197.953C4.63246 199.281 5.37205 200.364 6.29439 200.371C7.21673 200.378 7.97257 199.307 7.98259 197.978Z" fill="#E6E6E6"/>
<path d="M4.34021 182.684C4.35024 181.356 3.61066 180.274 2.68832 180.267C1.76598 180.26 1.01014 181.331 1.00012 182.659C0.990092 183.987 1.72967 185.07 2.65201 185.077C3.57435 185.084 4.33019 184.013 4.34021 182.684Z" fill="#3F3D56"/>
<path d="M32.6645 219.601C32.6745 218.273 31.935 217.19 31.0126 217.183C30.0903 217.176 29.3345 218.247 29.3244 219.575C29.3144 220.904 30.054 221.986 30.9763 221.993C31.8986 222 32.6545 220.929 32.6645 219.601Z" fill="#E6E6E6"/>
<path d="M20.7196 215.575C20.7297 214.247 19.9901 213.164 19.0677 213.157C18.1454 213.15 17.3895 214.221 17.3795 215.55C17.3695 216.878 18.1091 217.96 19.0314 217.967C19.9538 217.974 20.7096 216.903 20.7196 215.575Z" fill="#FF6584"/>
<path d="M37.3474 226.617C37.3574 225.289 36.6178 224.206 35.6954 224.199C34.7731 224.192 34.0173 225.263 34.0073 226.591C33.9972 227.92 34.7368 229.002 35.6591 229.009C36.5815 229.016 37.3373 227.945 37.3474 226.617Z" fill="#3F3D56"/>
</svg>
