<svg width="153" height="154" viewBox="0 0 153 154" fill="none" xmlns="http://www.w3.org/2000/svg">
<path d="M76.422 152.582C118.142 152.582 151.963 118.703 151.963 76.9113C151.963 35.1194 118.142 1.2403 76.422 1.2403C34.7019 1.2403 0.881073 35.1194 0.881073 76.9113C0.881073 118.703 34.7019 152.582 76.422 152.582Z" fill="white"/>
<path d="M76.422 153.338C34.3529 153.338 0.127075 119.053 0.127075 76.9112C0.127075 34.7697 34.3529 0.484863 76.422 0.484863C118.491 0.484863 152.717 34.7697 152.717 76.9112C152.717 119.053 118.491 153.338 76.422 153.338ZM76.422 1.99554C35.1845 1.99554 1.63515 35.6027 1.63515 76.9112C1.63515 118.22 35.1845 151.827 76.422 151.827C117.66 151.827 151.209 118.22 151.209 76.9112C151.209 35.6027 117.66 1.99554 76.422 1.99554Z" fill="#006FA7"/>
<path d="M66.1167 116.295C64.8122 116.295 63.5256 115.99 62.3589 115.406C61.1922 114.821 60.1775 113.973 59.395 112.927L38.7863 85.4009C38.1243 84.5166 37.6426 83.5103 37.3688 82.4395C37.0949 81.3687 37.0343 80.2544 37.1904 79.1602C37.3465 78.0659 37.7162 77.0132 38.2785 76.0621C38.8407 75.111 39.5844 74.2801 40.4672 73.6169C41.35 72.9537 42.3546 72.4712 43.4235 72.1969C44.4925 71.9226 45.6049 71.8619 46.6972 72.0183C47.7896 72.1746 48.8405 72.545 49.79 73.1082C50.7395 73.6714 51.5689 74.4164 52.231 75.3007L65.7139 93.3076L100.343 41.275C101.58 39.419 103.502 38.131 105.687 37.694C107.871 37.257 110.14 37.7069 111.993 38.9448C113.847 40.1826 115.134 42.1071 115.571 44.2952C116.009 46.4833 115.561 48.7559 114.327 50.6134L73.1091 112.546C72.3635 113.666 71.3607 114.591 70.1847 115.243C69.0088 115.894 67.694 116.254 66.3505 116.292C66.2726 116.293 66.1946 116.295 66.1167 116.295Z" fill="#006FA7"/>
</svg>
